<svg width="41" height="42" viewBox="0 0 41 42" fill="none" xmlns="http://www.w3.org/2000/svg">
<g clip-path="url(#clip0_2222_3495)">
<path d="M37.7731 23.4783C38.2119 22.9621 38.5474 22.3168 38.7797 21.5425C39.012 20.7682 39.1281 19.981 39.1281 19.1808C39.1281 18.6646 39.0701 18.1807 38.9539 17.729C38.8378 17.2773 38.6765 16.8708 38.47 16.5095C38.1861 16.0707 37.8247 15.7287 37.3859 15.4835C36.9472 15.2383 36.4697 15.1157 35.9534 15.1157H30.7655C32.1593 12.5604 33.0369 10.3214 33.3982 8.3985C33.7596 6.47562 33.5789 4.88182 32.8562 3.6171C32.3658 2.73955 31.727 2.12655 30.9398 1.77811C30.1525 1.42966 29.4492 1.25544 28.8297 1.25544C28.5716 1.25544 28.3522 1.33933 28.1716 1.5071C27.9909 1.67487 27.8748 1.8749 27.8231 2.10719C27.6425 3.42353 27.0746 4.8302 26.1196 6.32721C25.1647 7.82422 23.8999 9.26961 22.3255 10.6634C21.577 11.3344 20.7898 11.9797 19.9638 12.5992C19.1379 13.1928 18.2861 13.7542 17.4086 14.2833C16.531 14.8124 15.6277 15.2835 14.6985 15.6964C13.7693 16.1352 12.8272 16.5095 11.8722 16.8192C11.6399 16.3288 11.2786 15.9223 10.7882 15.5996C10.2978 15.277 9.75578 15.1157 9.16213 15.1157H3.23862C2.41269 15.1157 1.70935 15.4061 1.12861 15.9868C0.547876 16.5675 0.257507 17.2709 0.257507 18.0968V35.9448C0.257507 36.7707 0.547876 37.474 1.12861 38.0548C1.70935 38.6355 2.41269 38.9259 3.23862 38.9259H9.16213C9.8074 38.9259 10.3752 38.7452 10.8656 38.3839C11.356 38.0225 11.7174 37.5708 11.9497 37.0288C13.8855 37.2869 15.3179 37.5966 16.2471 37.958C17.1763 38.3193 18.0022 38.6807 18.7249 39.042C19.6025 39.5324 20.622 39.9648 21.7835 40.339C22.9449 40.7133 24.8936 40.9004 27.6296 40.9004C28.3522 40.9004 29.0362 40.8101 29.6815 40.6294C30.3268 40.4487 30.9075 40.1906 31.4237 39.8551C31.9141 39.5195 32.3142 39.1259 32.6239 38.6742C32.9336 38.2225 33.1401 37.7257 33.2433 37.1837C33.6563 37.0288 34.0306 36.7707 34.3661 36.4094C34.7016 36.048 35.0114 35.5834 35.2953 35.0156C35.5534 34.4736 35.7599 33.8864 35.9147 33.254C36.0696 32.6217 36.147 32.0474 36.147 31.5312V31.2214L36.1083 30.9892C36.3664 30.8085 36.6052 30.5762 36.8246 30.2923C37.0439 30.0084 37.244 29.6728 37.4246 29.2857C37.7086 28.7695 37.9215 28.1887 38.0635 27.5435C38.2054 26.8982 38.2764 26.2787 38.2764 25.6851C38.2764 25.2721 38.2377 24.8914 38.1602 24.543C38.0828 24.1945 37.9796 23.8784 37.8505 23.5944L37.8118 23.5557L37.7731 23.4783ZM9.16213 36.9514H3.23862C2.95471 36.9514 2.71596 36.8546 2.52238 36.661C2.3288 36.4674 2.23201 36.2287 2.23201 35.9448V18.0968C2.23201 17.8387 2.3288 17.6129 2.52238 17.4193C2.71596 17.2257 2.95471 17.1289 3.23862 17.1289H9.16213C9.44605 17.1289 9.6848 17.2257 9.87838 17.4193C10.072 17.6129 10.1687 17.8387 10.1687 18.0968V35.9448C10.1687 36.2287 10.072 36.4674 9.87838 36.661C9.6848 36.8546 9.44605 36.9514 9.16213 36.9514ZM36.6116 21.6199C36.4568 21.9297 36.3148 22.1426 36.1857 22.2587C36.0567 22.3749 35.9534 22.433 35.876 22.433C35.5921 22.433 35.3534 22.5298 35.1598 22.7233C34.9662 22.9169 34.8694 23.1557 34.8694 23.4396C34.8694 23.6977 34.9662 23.9235 35.1598 24.1171C35.3534 24.3107 35.5921 24.4075 35.876 24.4075C35.9276 24.4075 35.9664 24.4139 35.9922 24.4268C36.018 24.4397 36.0567 24.4849 36.1083 24.5623C36.1857 24.6914 36.2374 24.8527 36.2632 25.0463C36.289 25.2399 36.3019 25.4528 36.3019 25.6851C36.3019 26.1239 36.2438 26.5885 36.1277 27.0789C36.0115 27.5693 35.8631 28.0209 35.6824 28.4339C35.476 28.8211 35.2824 29.0985 35.1017 29.2663C34.921 29.4341 34.792 29.518 34.7145 29.518C34.4306 29.518 34.1919 29.6147 33.9983 29.8083C33.8047 30.0019 33.7079 30.2277 33.7079 30.4858C33.7079 30.6665 33.7466 30.8278 33.8241 30.9698C33.9015 31.1118 34.0177 31.2344 34.1725 31.3376C34.1983 31.6473 34.1338 32.1506 33.9789 32.8475C33.8241 33.5444 33.5531 34.1768 33.1659 34.7446C33.0369 34.9511 32.8949 35.1124 32.74 35.2285C32.5852 35.3447 32.4561 35.4028 32.3529 35.4028C32.069 35.4028 31.8302 35.4995 31.6366 35.6931C31.4431 35.8867 31.3463 36.1125 31.3463 36.3706C31.3463 37.2482 30.9527 37.8935 30.1654 38.3064C29.3782 38.7194 28.5329 38.9259 27.6296 38.9259C25.1517 38.9259 23.4031 38.7646 22.3836 38.4419C21.3641 38.1193 20.4542 37.7386 19.6541 37.2998C18.9056 36.9127 18.0022 36.5126 16.944 36.0996C15.8858 35.6867 14.2855 35.3382 12.1432 35.0543V18.8324C13.2015 18.4969 14.2339 18.0968 15.2405 17.6322C16.2729 17.1676 17.2731 16.6514 18.241 16.0836C19.2089 15.5158 20.1574 14.9092 21.0866 14.2639C21.99 13.5929 22.8546 12.8831 23.6805 12.1346C25.255 10.715 26.5455 9.2567 27.5521 7.75969C28.5587 6.26268 29.2427 4.80439 29.6041 3.38481C29.888 3.46224 30.1654 3.59775 30.4364 3.79132C30.7075 3.98491 30.9462 4.24946 31.1527 4.585C31.4882 5.17864 31.5915 6.30785 31.4624 7.97263C31.3334 9.63741 30.2364 12.1862 28.1716 15.619C28.0941 15.7739 28.0554 15.9416 28.0554 16.1223C28.0554 16.303 28.0941 16.4707 28.1716 16.6256C28.249 16.7805 28.3652 16.9031 28.52 16.9934C28.6749 17.0837 28.8426 17.1289 29.0233 17.1289H35.9534C36.1341 17.1289 36.2954 17.1612 36.4374 17.2257C36.5793 17.2902 36.702 17.4128 36.8052 17.5935C36.9084 17.7742 36.9923 18 37.0568 18.271C37.1214 18.542 37.1536 18.8453 37.1536 19.1808C37.1536 19.6196 37.102 20.0519 36.9988 20.4778C36.8955 20.9037 36.7665 21.2844 36.6116 21.6199Z" fill="#2F33A1"/>
</g>
<defs>
<clipPath id="clip0_2222_3495">
<rect width="40" height="41" fill="white" transform="matrix(1 0 0 -1 0.0799561 41.52)"/>
</clipPath>
</defs>
</svg>
