<svg width="41" height="42" viewBox="0 0 41 42" fill="none" xmlns="http://www.w3.org/2000/svg">
<path d="M22.6698 7.50814C22.6698 7.50814 22.2471 7.0855 21.4018 6.2402C20.5565 5.39491 18.9337 4.97226 16.5333 4.97226C14.133 4.97226 12.0875 5.81756 10.3969 7.50814C8.7063 9.19873 7.861 11.2442 7.861 13.6446C7.861 15.1158 8.20299 16.4838 8.88697 17.7485C9.57095 19.0132 10.5066 20.0456 11.6939 20.8457C9.44835 21.8007 7.62871 23.3106 6.23494 25.3755C4.84117 27.4403 4.14429 29.7245 4.14429 32.2282H6.6221C6.6221 29.4923 7.58999 27.1564 9.52578 25.2206C11.4616 23.2848 13.7974 22.3169 16.5333 22.3169C19.1402 22.3169 21.4115 23.2461 23.3473 25.1045L17.5012 30.9505L17.4238 31.3377L16.5721 35.7126L16.1849 37.5322L18.0045 37.1451L22.7666 36.2159L35.2718 23.7107C35.9945 22.988 36.3558 22.1104 36.3558 21.078C36.3558 20.0456 35.9945 19.168 35.2718 18.4454C34.5491 17.7227 33.6715 17.3613 32.6391 17.3613C31.6325 17.3613 30.7678 17.7098 30.0451 18.4066L25.1282 23.3235C24.0184 22.2653 22.7666 21.4394 21.3728 20.8457C22.5601 20.0456 23.4957 19.0132 24.1797 17.7485C24.8637 16.4838 25.2057 15.1158 25.2057 13.6446C25.2057 11.2442 24.3604 9.19873 22.6698 7.50814ZM12.1391 9.25035C12.1391 9.25035 12.4391 8.95031 13.0392 8.35021C13.6393 7.75012 14.804 7.45007 16.5333 7.45007C18.2626 7.45007 19.7274 8.05017 20.9276 9.25035C22.1278 10.4505 22.7279 11.9153 22.7279 13.6446C22.7279 15.3739 22.1278 16.8386 20.9276 18.0388C19.7274 19.239 18.2626 19.8391 16.5333 19.8391C14.804 19.8391 13.3393 19.239 12.1391 18.0388C10.9389 16.8386 10.3388 15.3739 10.3388 13.6446C10.3388 11.9153 10.9389 10.4505 12.1391 9.25035ZM32.6391 19.8391C33.0004 19.8391 33.2973 19.9553 33.5296 20.1876C33.7877 20.4457 33.9167 20.736 33.9167 21.0587C33.9167 21.3813 33.7877 21.6717 33.5296 21.9298L21.5277 33.9317L19.3209 34.3962L19.7855 32.1894L31.7873 20.1876C32.0196 19.9553 32.3036 19.8391 32.6391 19.8391Z" fill="#2F33A1"/>
</svg>
