<svg width="16" height="16" viewBox="0 0 16 16" fill="none" xmlns="http://www.w3.org/2000/svg">
<path d="M14.8345 8.06055L10.486 3.71211C10.4105 3.64601 10.3231 3.61296 10.224 3.61296C10.1248 3.61296 10.0375 3.64601 9.96195 3.71211C9.89585 3.78766 9.8628 3.875 9.8628 3.97415C9.8628 4.0733 9.89585 4.16065 9.96195 4.23619L13.7013 7.9614H1.88829C1.78442 7.9614 1.69707 7.99682 1.62625 8.06764C1.55543 8.13846 1.52002 8.22581 1.52002 8.32968C1.52002 8.42411 1.55543 8.50673 1.62625 8.57755C1.69707 8.64837 1.78442 8.68378 1.88829 8.68378H13.7013L9.97611 12.4232C9.90057 12.4893 9.8628 12.5719 9.8628 12.671C9.8628 12.7702 9.90057 12.8575 9.97611 12.9331C10.0044 12.9708 10.0422 12.9968 10.0894 13.011C10.1366 13.0251 10.1839 13.0322 10.2311 13.0322C10.2783 13.0322 10.3231 13.0251 10.3656 13.011C10.4081 12.9968 10.4483 12.9708 10.486 12.9331L14.8345 8.58463C14.9006 8.50909 14.9336 8.42174 14.9336 8.32259C14.9336 8.22344 14.9006 8.1361 14.8345 8.06055Z" fill="#2F33A1"/>
</svg>
