<svg width="36" height="37" viewBox="0 0 36 37" fill="none" xmlns="http://www.w3.org/2000/svg">
<path d="M18 3.26798C13.9705 3.26798 10.5406 4.68299 7.71062 7.51302C4.88059 10.3431 3.46558 13.7729 3.46558 17.8024C3.46558 21.832 4.88059 25.2618 7.71062 28.0919C10.5406 30.9219 13.9705 32.3369 18 32.3369C22.0296 32.3369 25.4594 30.9219 28.2895 28.0919C31.1195 25.2618 32.5345 21.832 32.5345 17.8024C32.5345 16.0788 32.2783 14.5532 31.7659 13.2255L29.9491 15.0074C30.182 15.9391 30.2984 16.8708 30.2984 17.8024C30.2984 21.2031 29.0989 24.103 26.6998 26.5022C24.3006 28.9013 21.4007 30.1008 18 30.1008C14.5993 30.1008 11.6994 28.9013 9.30033 26.5022C6.90121 24.103 5.70165 21.2031 5.70165 17.8024C5.70165 14.4018 6.90121 11.5018 9.30033 9.10273C11.6994 6.70361 14.5993 5.50405 18 5.50405C21.3542 5.50405 24.1842 6.65703 26.4901 8.96298L28.0624 7.39074C25.3139 4.64223 21.9598 3.26798 18 3.26798ZM30.6129 8.05457L18 20.6674L13.2135 15.8808L11.6063 17.488L17.1965 23.0782L18 23.8468L18.8036 23.0782L32.2201 9.66175L30.6129 8.05457Z" fill="#4143A3"/>
</svg>
