<svg width="40" height="42" viewBox="0 0 40 42" fill="none" xmlns="http://www.w3.org/2000/svg">
<path d="M18.7609 6.66082V8.05459C17.8575 8.23526 17.0961 8.53208 16.4767 8.94505L15.5088 7.97716L13.7278 9.71937L14.7345 10.726C14.2957 11.3971 13.9989 12.1068 13.844 12.8553H12.5664V15.3332H13.844C13.9989 16.0817 14.2957 16.7914 14.7345 17.4625L13.7278 18.4691L15.5088 20.2113L16.4767 19.2434C17.0961 19.6564 17.8575 19.9532 18.7609 20.1339V21.5277H21.2387V20.1339C22.0388 19.9532 22.7357 19.6693 23.3294 19.2822L24.2585 20.2113L26.0007 18.4691L25.0716 17.54C25.5362 16.8689 25.8459 16.1333 26.0007 15.3332H27.4332V12.8553H26.0007C25.8459 12.0552 25.5362 11.3196 25.0716 10.6485L26.0007 9.71937L24.2585 7.97716L23.3294 8.90634C22.7357 8.51918 22.0388 8.23526 21.2387 8.05459V6.66082H18.7609ZM17.2897 11.4616C17.2897 11.4616 17.4704 11.2809 17.8317 10.9196C18.1931 10.5582 18.89 10.3775 19.9224 10.3775C20.9548 10.3775 21.8323 10.7389 22.555 11.4616C23.2777 12.1843 23.6391 13.0618 23.6391 14.0942C23.6391 15.1267 23.2777 16.0042 22.555 16.7269C21.8323 17.4496 20.9548 17.811 19.9224 17.811C18.89 17.811 18.0124 17.4496 17.2897 16.7269C16.567 16.0042 16.2057 15.1267 16.2057 14.0942C16.2057 13.0618 16.567 12.1843 17.2897 11.4616ZM10.0886 21.5277V22.8827C9.23682 23.0376 8.47541 23.3473 7.80434 23.8119L6.83644 22.844L5.05552 24.5862L6.06213 25.5928C5.62335 26.2639 5.32653 26.9737 5.17166 27.7222H3.89404V30.2H5.17166C5.32653 30.9485 5.62335 31.6583 6.06213 32.3294L5.05552 33.336L6.83644 35.0782L7.80434 34.1103C8.47541 34.5749 9.23682 34.8846 10.0886 35.0395V36.3945H12.5664V35.0008C13.3665 34.8201 14.0634 34.5362 14.657 34.149L15.5862 35.0782L17.3284 33.336L16.3992 32.4068C16.8638 31.7357 17.1736 31.013 17.3284 30.2387L18.7996 30.2L18.7222 27.7222L17.3284 27.7609C17.1736 26.935 16.8638 26.1865 16.3992 25.5154L17.3284 24.5862L15.5862 22.844L14.657 23.7732C14.0634 23.386 13.3665 23.1021 12.5664 22.9214V21.5277H10.0886ZM27.4332 21.5277V22.9214C26.5299 23.1021 25.7685 23.3989 25.149 23.8119L24.1811 22.844L22.4002 24.5862L23.4068 25.5928C22.968 26.2639 22.6712 26.9737 22.5163 27.7222H21.2387V30.2H22.5163C22.6712 30.9485 22.968 31.6583 23.4068 32.3294L22.4002 33.336L24.1811 35.0782L25.149 34.1103C25.7685 34.5233 26.5299 34.8201 27.4332 35.0008V36.3945H29.911V35.0008C30.6079 34.8459 31.2919 34.5491 31.963 34.1103L32.9309 35.0782L34.6731 33.336L33.7439 32.4068C34.1827 31.7615 34.4924 31.0388 34.6731 30.2387L36.1443 30.2L36.0668 27.7222L34.6731 27.7609C34.5182 27.0382 34.1956 26.3026 33.7052 25.5541L34.6731 24.5862L32.9309 22.844L31.963 23.8119C31.3435 23.4247 30.6595 23.1408 29.911 22.9602V21.5277H27.4332ZM8.61737 26.3284C8.61737 26.3284 8.79804 26.1478 9.15939 25.7864C9.52073 25.4251 10.2176 25.2444 11.25 25.2444C12.2825 25.2444 13.16 25.6057 13.8827 26.3284C14.6054 27.0511 14.9668 27.9287 14.9668 28.9611C14.9668 29.9935 14.6054 30.8711 13.8827 31.5938C13.16 32.3165 12.2825 32.6778 11.25 32.6778C10.2176 32.6778 9.34006 32.3165 8.61737 31.5938C7.89467 30.8711 7.53333 29.9935 7.53333 28.9611C7.53333 27.9287 7.89467 27.0511 8.61737 26.3284ZM25.962 26.3284C25.962 26.3284 26.1427 26.1478 26.5041 25.7864C26.8654 25.4251 27.5623 25.2444 28.5947 25.2444C29.6271 25.2444 30.5047 25.6057 31.2274 26.3284C31.9501 27.0511 32.3114 27.9287 32.3114 28.9611C32.3114 29.9935 31.9501 30.8711 31.2274 31.5938C30.5047 32.3165 29.6271 32.6778 28.5947 32.6778C27.5623 32.6778 26.6847 32.3165 25.962 31.5938C25.2393 30.8711 24.878 29.9935 24.878 28.9611C24.878 27.9287 25.2393 27.0511 25.962 26.3284Z" fill="#2F33A1"/>
</svg>
