<svg width="10" height="7" viewBox="0 0 10 7" fill="none" xmlns="http://www.w3.org/2000/svg">
<path d="M3.30788 6.98633C3.22856 6.98633 3.16246 6.95548 3.10958 6.89379L0.293712 4.07792C0.232019 4.02504 0.201172 3.95894 0.201172 3.87962C0.201172 3.8003 0.229815 3.7342 0.287102 3.68132C0.344389 3.62844 0.412692 3.602 0.492012 3.602C0.571332 3.602 0.637432 3.62844 0.690313 3.68132L3.30788 6.29889L9.30976 0.296999C9.37146 0.244119 9.43976 0.217679 9.51468 0.217679C9.58959 0.217679 9.65569 0.244119 9.71298 0.296999C9.77026 0.349879 9.79891 0.415979 9.79891 0.495299C9.79891 0.574619 9.76806 0.640719 9.70637 0.693599L3.50618 6.89379C3.48855 6.91141 3.46872 6.92684 3.44669 6.94006C3.42465 6.95328 3.40262 6.96429 3.38059 6.97311C3.35855 6.98192 3.33432 6.98633 3.30788 6.98633Z" fill="#2F33A1"/>
</svg>
