<svg width="41" height="42" viewBox="0 0 41 42" fill="none" xmlns="http://www.w3.org/2000/svg">
<g clip-path="url(#clip0_2222_3479)">
<path d="M39.7021 28.3759C39.7021 28.3759 39.6537 28.3275 39.5569 28.2308C39.4601 28.134 39.2698 28.0856 38.9859 28.0856C38.702 28.0856 38.4632 28.1824 38.2696 28.3759C38.076 28.5695 37.9793 28.8083 37.9793 29.0922V32.925C37.9793 34.0349 37.5857 34.9899 36.7984 35.79C36.0112 36.5901 35.0627 36.9902 33.9528 36.9902H6.38719C5.27734 36.9902 4.32881 36.5901 3.54159 35.79C2.75436 34.9899 2.36075 34.0349 2.36075 32.925V29.0922C2.36075 28.8083 2.26396 28.5695 2.07039 28.3759C1.87681 28.1824 1.63806 28.0856 1.35414 28.0856C1.07023 28.0856 0.831481 28.1824 0.637902 28.3759C0.444324 28.5695 0.347534 28.8083 0.347534 29.0922V32.925C0.347534 34.6027 0.941176 36.0352 2.12846 37.2225C3.31574 38.4098 4.73532 39.0034 6.38719 39.0034H33.9528C35.6047 39.0034 37.0243 38.4098 38.2116 37.2225C39.3988 36.0352 39.9925 34.6027 39.9925 32.925V29.0922C39.9925 28.8083 39.8957 28.5695 39.7021 28.3759ZM32.8688 32.0346H7.47124C7.21313 32.0346 6.98084 32.1378 6.77435 32.3443C6.56787 32.5508 6.46463 32.7831 6.46463 33.0412C6.46463 33.3251 6.56787 33.5703 6.77435 33.7768C6.98084 33.9833 7.21313 34.0865 7.47124 34.0865H32.8688C33.1269 34.0865 33.3592 33.9833 33.5657 33.7768C33.7721 33.5703 33.8754 33.3251 33.8754 33.0412C33.8754 32.7831 33.7721 32.5508 33.5657 32.3443C33.3592 32.1378 33.1269 32.0346 32.8688 32.0346ZM30.6426 18.5809C30.6426 18.5809 30.6458 18.5131 30.6523 18.3776C30.6588 18.2421 30.5716 18.0711 30.391 17.8646C30.2103 17.6581 29.978 17.542 29.6941 17.5162C29.4102 17.4904 29.165 17.5807 28.9585 17.7872L21.1766 24.7173V5.16584C21.1766 4.88192 21.0798 4.64317 20.8862 4.44959C20.6927 4.25602 20.4539 4.15923 20.17 4.15923C19.8861 4.15923 19.6473 4.25602 19.4538 4.44959C19.2602 4.64317 19.1634 4.88192 19.1634 5.16584V24.7173L11.3815 17.7872C11.175 17.5807 10.9298 17.4904 10.6459 17.5162C10.362 17.542 10.1297 17.6581 9.94905 17.8646C9.76837 18.0711 9.68449 18.3098 9.69739 18.5809C9.7103 18.8519 9.81999 19.0777 10.0265 19.2584L18.5052 26.8467C18.7375 27.0532 18.9956 27.208 19.2795 27.3113C19.5635 27.4145 19.8603 27.4661 20.17 27.4661C20.4797 27.4661 20.7766 27.4145 21.0605 27.3113C21.3444 27.208 21.6025 27.0532 21.8348 26.8467L30.3135 19.2584C30.52 19.0777 30.6297 18.8519 30.6426 18.5809Z" fill="#2F33A1"/>
</g>
<defs>
<clipPath id="clip0_2222_3479">
<rect width="40" height="41" fill="white" transform="matrix(1 0 0 -1 0.170044 41.52)"/>
</clipPath>
</defs>
</svg>
