<svg width="40" height="42" viewBox="0 0 40 42" fill="none" xmlns="http://www.w3.org/2000/svg">
<path d="M35.4863 15.1626H33.6279C33.5247 13.3559 33.0988 11.6653 32.3503 10.0909C31.6018 8.51644 30.621 7.14203 29.4079 5.96766C28.1948 4.79328 26.7752 3.87055 25.1491 3.19948C23.5489 2.5284 21.8325 2.19287 20 2.19287C18.1674 2.19287 16.451 2.5284 14.8508 3.19948C13.2247 3.87055 11.8051 4.78682 10.592 5.9483C9.37892 7.10977 8.39813 8.47773 7.64962 10.0522C6.90112 11.6266 6.47524 13.3172 6.372 15.1239V15.1626H4.51364C3.6619 15.1626 2.93275 15.4659 2.3262 16.0725C1.71966 16.679 1.41638 17.4082 1.41638 18.2599V23.2155C1.41638 24.0673 1.71966 24.7964 2.3262 25.403C2.93275 26.0095 3.6619 26.3128 4.51364 26.3128H6.99145C7.50766 26.3128 7.94644 26.1321 8.30779 25.7708C8.66914 25.4094 8.84981 24.9706 8.84981 24.4544V17.021C8.84981 16.6338 8.74011 16.279 8.52073 15.9563C8.30134 15.6337 8.01097 15.4079 7.64962 15.2788C7.70124 13.6269 8.06259 12.0783 8.73366 10.6329C9.40474 9.18752 10.2952 7.92925 11.4051 6.85812C12.5149 5.78698 13.8054 4.94168 15.2766 4.32224C16.7478 3.70278 18.3223 3.39305 20 3.39305C21.6776 3.39305 23.2521 3.70278 24.7233 4.32224C26.1945 4.94168 27.485 5.78698 28.5949 6.85812C29.7047 7.92925 30.5952 9.18752 31.2662 10.6329C31.9373 12.0783 32.2987 13.6269 32.3503 15.2788C32.0147 15.4079 31.7308 15.6337 31.4985 15.9563C31.2662 16.279 31.1501 16.6338 31.1501 17.021V24.4544C31.1501 24.8674 31.2662 25.2287 31.4985 25.5385C31.7308 25.8482 32.0276 26.0676 32.389 26.1966V28.1711C32.389 29.2294 32.1954 30.236 31.8083 31.191C31.4211 32.1202 30.8855 32.9461 30.2016 33.6688C29.5176 34.3915 28.7239 34.9722 27.8205 35.411C26.9172 35.8756 25.9364 36.1337 24.8781 36.1853C24.7233 35.6691 24.4265 35.2368 23.9877 34.8883C23.5489 34.5399 23.0456 34.3657 22.4778 34.3657H17.5221C16.8253 34.3657 16.2381 34.6044 15.7606 35.0819C15.2831 35.5594 15.0443 36.1466 15.0443 36.8435C15.0443 37.5404 15.2831 38.1276 15.7606 38.605C16.2381 39.0825 16.8253 39.3213 17.5221 39.3213H22.4778C23.0456 39.3213 23.5553 39.1406 24.007 38.7793C24.4587 38.4179 24.7491 37.9791 24.8781 37.4629V37.4242C26.0912 37.3468 27.2398 37.0629 28.3238 36.5725C29.3821 36.0563 30.3048 35.3787 31.092 34.5399C31.8792 33.701 32.4922 32.7396 32.931 31.6556C33.3956 30.5715 33.6279 29.4101 33.6279 28.1711V26.3128H35.4863C36.338 26.3128 37.0672 26.0095 37.6737 25.403C38.2802 24.7964 38.5835 24.0673 38.5835 23.2155V18.2599C38.5835 17.4082 38.2802 16.679 37.6737 16.0725C37.0672 15.4659 36.338 15.1626 35.4863 15.1626ZM5.1331 25.0739H4.51364C3.99743 25.0739 3.55865 24.8932 3.19731 24.5319C2.83596 24.1705 2.65529 23.7317 2.65529 23.2155V18.2599C2.65529 17.7437 2.83596 17.3049 3.19731 16.9436C3.55865 16.5822 3.99743 16.4016 4.51364 16.4016H5.1331V25.0739ZM7.6109 24.4544C7.6109 24.6351 7.55283 24.7835 7.43668 24.8997C7.32054 25.0158 7.17213 25.0739 6.99145 25.0739H6.372V16.4016H6.99145C7.17213 16.4016 7.32054 16.4596 7.43668 16.5758C7.55283 16.6919 7.6109 16.8403 7.6109 17.021V24.4544ZM22.4778 38.0824H17.5221C17.1866 38.0824 16.8962 37.9598 16.651 37.7146C16.4058 37.4694 16.2832 37.179 16.2832 36.8435C16.2832 36.5079 16.4058 36.2176 16.651 35.9724C16.8962 35.7272 17.1866 35.6046 17.5221 35.6046H22.4778C22.8133 35.6046 23.1037 35.7272 23.3489 35.9724C23.5941 36.2176 23.7167 36.5079 23.7167 36.8435C23.7167 37.179 23.5941 37.4694 23.3489 37.7146C23.1037 37.9598 22.8133 38.0824 22.4778 38.0824ZM33.6279 25.0739H33.0084C32.8278 25.0739 32.6794 25.0158 32.5632 24.8997C32.4471 24.7835 32.389 24.6351 32.389 24.4544V17.021C32.389 16.8403 32.4471 16.6919 32.5632 16.5758C32.6794 16.4596 32.8278 16.4016 33.0084 16.4016H33.6279V25.0739ZM37.3446 23.2155C37.3446 23.7317 37.1639 24.1705 36.8026 24.5319C36.4412 24.8932 36.0025 25.0739 35.4863 25.0739H34.8668V16.4016H35.4863C36.0025 16.4016 36.4412 16.5822 36.8026 16.9436C37.1639 17.3049 37.3446 17.7437 37.3446 18.2599V23.2155ZM27.9754 24.106C28.44 23.0478 28.6723 21.925 28.6723 20.7377C28.6723 19.5504 28.44 18.4277 27.9754 17.3694C27.5366 16.3112 26.9236 15.3885 26.1364 14.6013C25.3492 13.8141 24.4265 13.201 23.3682 12.7623C22.31 12.2977 21.1872 12.0654 20 12.0654C18.8127 12.0654 17.6899 12.2977 16.6317 12.7623C15.5734 13.201 14.6507 13.8141 13.8635 14.6013C13.0763 15.3885 12.4633 16.3112 12.0245 17.3694C11.5599 18.4277 11.3276 19.5504 11.3276 20.7377C11.3276 21.925 11.5599 23.0478 12.0245 24.106C12.4633 25.1642 13.0763 26.0869 13.8635 26.8742C14.6507 27.6614 15.5734 28.2744 16.6317 28.7132C17.6899 29.1778 18.8127 29.4101 20 29.4101C21.1872 29.4101 22.31 29.1778 23.3682 28.7132C24.4265 28.2744 25.3492 27.6614 26.1364 26.8742C26.9236 26.0869 27.5366 25.1642 27.9754 24.106ZM12.5665 20.7377C12.5665 18.6729 13.2892 16.9178 14.7346 15.4724C16.18 14.027 17.9351 13.3043 20 13.3043C22.0648 13.3043 23.8199 14.027 25.2653 15.4724C26.7107 16.9178 27.4334 18.6729 27.4334 20.7377C27.4334 22.8026 26.7107 24.5577 25.2653 26.0031C23.8199 27.4485 22.0648 28.1711 20 28.1711C17.9609 28.1711 16.2123 27.442 14.754 25.9837C13.2957 24.5254 12.5665 22.7768 12.5665 20.7377ZM24.762 16.8274L23.9102 15.9757L20 19.8473L17.948 17.834L17.0963 18.6858L20 21.6282L24.762 16.8274Z" fill="#2F33A1"/>
</svg>
