<svg width="32" height="32" viewBox="0 0 32 32" fill="none" xmlns="http://www.w3.org/2000/svg">
<path d="M25.6589 14.9923C25.5227 15.1284 25.338 15.2048 25.1455 15.2048C24.9529 15.2048 24.7682 15.1284 24.632 14.9923L17.1533 7.51475V27.0726C17.1533 27.2653 17.0767 27.4501 16.9405 27.5864C16.8042 27.7226 16.6194 27.7992 16.4267 27.7992C16.234 27.7992 16.0492 27.7226 15.9129 27.5864C15.7767 27.4501 15.7001 27.2653 15.7001 27.0726V7.51475L8.22139 14.9923C8.08366 15.1206 7.90149 15.1905 7.71326 15.1872C7.52503 15.1839 7.34544 15.1076 7.21232 14.9745C7.0792 14.8414 7.00295 14.6618 6.99962 14.4735C6.9963 14.2853 7.06617 14.1031 7.19451 13.9654L15.9133 5.24667C16.0495 5.1106 16.2342 5.03418 16.4267 5.03418C16.6192 5.03418 16.8039 5.1106 16.9401 5.24667L25.6589 13.9654C25.795 14.1016 25.8714 14.2863 25.8714 14.4789C25.8714 14.6714 25.795 14.8561 25.6589 14.9923Z" fill="white"/>
</svg>
