<svg width="31" height="32" viewBox="0 0 31 32" fill="none" xmlns="http://www.w3.org/2000/svg">
<g clip-path="url(#clip0_2222_3517)">
<path d="M27.1675 7.27301C27.1675 7.17543 27.148 7.08761 27.109 7.00955C27.0699 6.93149 27.0211 6.85343 26.9626 6.77537L21.5764 1.41843C21.5178 1.35988 21.4446 1.31109 21.3568 1.27206C21.269 1.23303 21.1763 1.21352 21.0787 1.21352H6.17883C5.76901 1.21352 5.41774 1.355 5.12501 1.63797C4.83228 1.92094 4.68591 2.26734 4.68591 2.67716V29.696C4.68591 30.1059 4.83228 30.4571 5.12501 30.7499C5.41774 31.0426 5.76901 31.189 6.17883 31.189H25.6746C26.0844 31.189 26.4357 31.0426 26.7284 30.7499C27.0211 30.4571 27.1675 30.1059 27.1675 29.696V7.27301ZM21.7813 3.61389L24.7671 6.57046H21.8691C21.8496 6.57046 21.8301 6.56558 21.8106 6.55582C21.791 6.54606 21.7813 6.53143 21.7813 6.51191V3.61389ZM25.7624 29.696C25.7624 29.7156 25.7526 29.7351 25.7331 29.7546C25.7136 29.7741 25.6941 29.7839 25.6746 29.7839H6.17883C6.15932 29.7839 6.1398 29.7741 6.12029 29.7546C6.10077 29.7351 6.09101 29.7156 6.09101 29.696V2.67716C6.09101 2.65765 6.10077 2.64301 6.12029 2.63325C6.1398 2.6235 6.15932 2.61862 6.17883 2.61862H20.3762V6.51191C20.3762 6.92173 20.5226 7.26813 20.8153 7.5511C21.108 7.83407 21.4593 7.97556 21.8691 7.97556H25.7624V29.696ZM22.1326 10.815H9.72085C9.5257 10.815 9.35982 10.8833 9.22321 11.0199C9.08661 11.1565 9.0183 11.3224 9.0183 11.5176C9.0183 11.7127 9.08661 11.8786 9.22321 12.0152C9.35982 12.1518 9.5257 12.2201 9.72085 12.2201H22.1326C22.3277 12.2201 22.4936 12.1518 22.6302 12.0152C22.7668 11.8786 22.8351 11.7127 22.8351 11.5176C22.8351 11.3224 22.7668 11.1565 22.6302 11.0199C22.4936 10.8833 22.3277 10.815 22.1326 10.815ZM22.1326 15.0596H9.72085C9.5257 15.0596 9.35982 15.1279 9.22321 15.2645C9.08661 15.4011 9.0183 15.5572 9.0183 15.7329C9.0183 15.928 9.08661 16.0939 9.22321 16.2305C9.35982 16.3671 9.5257 16.4354 9.72085 16.4354H22.1326C22.3277 16.4354 22.4936 16.3671 22.6302 16.2305C22.7668 16.0939 22.8351 15.928 22.8351 15.7329C22.8351 15.5572 22.7668 15.4011 22.6302 15.2645C22.4936 15.1279 22.3277 15.0596 22.1326 15.0596ZM22.1326 19.2749H9.72085C9.5257 19.2749 9.35982 19.3432 9.22321 19.4798C9.08661 19.6164 9.0183 19.7823 9.0183 19.9774C9.0183 20.1726 9.08661 20.3385 9.22321 20.4751C9.35982 20.6117 9.5257 20.68 9.72085 20.68H22.1326C22.3277 20.68 22.4936 20.6117 22.6302 20.4751C22.7668 20.3385 22.8351 20.1726 22.8351 19.9774C22.8351 19.7823 22.7668 19.6164 22.6302 19.4798C22.4936 19.3432 22.3277 19.2749 22.1326 19.2749ZM15.9267 23.5195H9.72085C9.5257 23.5195 9.35982 23.5878 9.22321 23.7244C9.08661 23.861 9.0183 24.0269 9.0183 24.222C9.0183 24.4172 9.08661 24.583 9.22321 24.7197C9.35982 24.8563 9.5257 24.9246 9.72085 24.9246H15.9267C16.1219 24.9246 16.2877 24.8563 16.4243 24.7197C16.561 24.583 16.6293 24.4172 16.6293 24.222C16.6293 24.0269 16.561 23.861 16.4243 23.7244C16.2877 23.5878 16.1219 23.5195 15.9267 23.5195Z" fill="white"/>
</g>
<defs>
<clipPath id="clip0_2222_3517">
<rect width="30" height="31" fill="white" transform="matrix(1 0 0 -1 0.926758 31.2769)"/>
</clipPath>
</defs>
</svg>
