<svg width="31" height="32" viewBox="0 0 31 32" fill="none" xmlns="http://www.w3.org/2000/svg">
<g clip-path="url(#clip0_2222_3525)">
<path d="M30.2998 29.9302H1.55382C1.3977 29.9302 1.25621 29.9937 1.12936 30.1205C1.00251 30.2474 0.939087 30.3986 0.939087 30.5742C0.939087 30.7304 1.00251 30.8718 1.12936 30.9987C1.25621 31.1255 1.3977 31.189 1.55382 31.189H30.2998C30.4754 31.189 30.6218 31.1255 30.7389 30.9987C30.856 30.8718 30.9145 30.7304 30.9145 30.5742C30.9145 30.3986 30.8511 30.2474 30.7243 30.1205C30.5974 29.9937 30.4559 29.9302 30.2998 29.9302ZM6.55948 22.4364H2.81255C2.63692 22.4364 2.49055 22.4998 2.37346 22.6266C2.25637 22.7535 2.19782 22.9047 2.19782 23.0804V30.5742C2.19782 30.7304 2.25637 30.8718 2.37346 30.9987C2.49055 31.1255 2.63692 31.189 2.81255 31.189H6.55948C6.73512 31.189 6.88149 31.1255 6.99858 30.9987C7.11567 30.8718 7.17421 30.7304 7.17421 30.5742V23.0804C7.17421 22.9047 7.11567 22.7535 6.99858 22.6266C6.88149 22.4998 6.73512 22.4364 6.55948 22.4364ZM5.94475 29.9302H3.42728V23.6951H5.94475V29.9302ZM14.0533 16.2012H10.3064C10.1308 16.2012 9.98441 16.2598 9.86732 16.3769C9.75023 16.494 9.69168 16.6403 9.69168 16.816V30.5742C9.69168 30.7304 9.75023 30.8718 9.86732 30.9987C9.98441 31.1255 10.1308 31.189 10.3064 31.189H14.0533C14.229 31.189 14.3753 31.1255 14.4924 30.9987C14.6095 30.8718 14.6681 30.7304 14.6681 30.5742V16.816C14.6681 16.6403 14.6095 16.494 14.4924 16.3769C14.3753 16.2598 14.229 16.2012 14.0533 16.2012ZM13.4386 29.9302H10.9211V17.4307H13.4386V29.9302ZM21.5472 18.6894H17.8003C17.6246 18.6894 17.4783 18.7529 17.3612 18.8797C17.2441 19.0066 17.1855 19.1578 17.1855 19.3334V30.5742C17.1855 30.7304 17.2441 30.8718 17.3612 30.9987C17.4783 31.1255 17.6246 31.189 17.8003 31.189H21.5472C21.7228 31.189 21.8692 31.1255 21.9863 30.9987C22.1034 30.8718 22.1619 30.7304 22.1619 30.5742V19.3334C22.1619 19.1578 22.1034 19.0066 21.9863 18.8797C21.8692 18.7529 21.7228 18.6894 21.5472 18.6894ZM20.9325 29.9302H18.415V19.9482H20.9325V29.9302ZM29.0411 11.1956H25.2941C25.1185 11.1956 24.9721 11.259 24.855 11.3858C24.738 11.5127 24.6794 11.6639 24.6794 11.8396V30.5742C24.6794 30.7304 24.738 30.8718 24.855 30.9987C24.9721 31.1255 25.1185 31.189 25.2941 31.189H29.0411C29.2167 31.189 29.3631 31.1255 29.4802 30.9987C29.5973 30.8718 29.6558 30.7304 29.6558 30.5742V11.8396C29.6558 11.6639 29.5973 11.5127 29.4802 11.3858C29.3631 11.259 29.2167 11.1956 29.0411 11.1956ZM28.4263 29.9302H25.9089V12.4543H28.4263V29.9302ZM6.44239 13.1861C6.44239 13.1861 6.32042 13.0642 6.07648 12.8202C5.83254 12.5763 5.36905 12.4543 4.68602 12.4543C4.00298 12.4543 3.41753 12.6982 2.92964 13.1861C2.44176 13.674 2.19782 14.2595 2.19782 14.9425C2.19782 15.6451 2.44176 16.2403 2.92964 16.7282C3.41753 17.216 4.00298 17.46 4.68602 17.46C5.36905 17.46 5.95451 17.216 6.44239 16.7282C6.93027 16.2403 7.17421 15.6451 7.17421 14.9425C7.17421 14.2595 6.93027 13.674 6.44239 13.1861ZM5.57884 15.8353C5.57884 15.8353 5.51786 15.8963 5.39589 16.0183C5.27392 16.1403 5.03729 16.2012 4.68602 16.2012C4.33474 16.2012 4.03714 16.0793 3.79319 15.8353C3.54925 15.5914 3.42728 15.2938 3.42728 14.9425C3.42728 14.5912 3.54925 14.2985 3.79319 14.0643C4.03714 13.8301 4.33474 13.713 4.68602 13.713C5.03729 13.713 5.3349 13.835 5.57884 14.079C5.82278 14.3229 5.94475 14.6107 5.94475 14.9425C5.94475 15.2938 5.82278 15.5914 5.57884 15.8353ZM13.9363 6.93637C13.9363 6.93637 13.8143 6.81196 13.5703 6.56314C13.3264 6.31432 12.8629 6.18991 12.1799 6.18991C11.4968 6.18991 10.9114 6.43385 10.4235 6.92173C9.93562 7.40961 9.69168 8.00483 9.69168 8.70738C9.69168 9.39041 9.93562 9.97587 10.4235 10.4638C10.9114 10.9516 11.4968 11.1956 12.1799 11.1956C12.8629 11.1956 13.4484 10.9516 13.9363 10.4638C14.4241 9.97587 14.6681 9.39041 14.6681 8.70738C14.6681 8.02434 14.4241 7.43401 13.9363 6.93637ZM13.0727 9.57093C13.0727 9.57093 13.0117 9.63191 12.8897 9.75389C12.7678 9.87585 12.5312 9.93684 12.1799 9.93684C11.8286 9.93684 11.531 9.81487 11.2871 9.57093C11.0431 9.32699 10.9211 9.03914 10.9211 8.70738C10.9211 8.3561 11.0431 8.0585 11.2871 7.81455C11.531 7.57061 11.8286 7.44864 12.1799 7.44864C12.5312 7.44864 12.8288 7.57061 13.0727 7.81455C13.3166 8.0585 13.4386 8.3561 13.4386 8.70738C13.4386 9.03914 13.3166 9.32699 13.0727 9.57093ZM21.4301 9.4392C21.4301 9.4392 21.3081 9.31723 21.0642 9.07329C20.8203 8.82935 20.3568 8.70738 19.6737 8.70738C18.9907 8.70738 18.4053 8.95132 17.9174 9.4392C17.4295 9.92708 17.1855 10.5125 17.1855 11.1956C17.1855 11.8981 17.4295 12.4933 17.9174 12.9812C18.4053 13.4691 18.9907 13.713 19.6737 13.713C20.3568 13.713 20.9422 13.4691 21.4301 12.9812C21.918 12.4933 22.1619 11.8981 22.1619 11.1956C22.1619 10.5125 21.918 9.92708 21.4301 9.4392ZM20.5666 12.0884C20.5666 12.0884 20.5056 12.1494 20.3836 12.2714C20.2616 12.3933 20.025 12.4543 19.6737 12.4543C19.3225 12.4543 19.0249 12.3323 18.7809 12.0884C18.537 11.8445 18.415 11.5469 18.415 11.1956C18.415 10.8638 18.537 10.576 18.7809 10.332C19.0249 10.0881 19.3225 9.96611 19.6737 9.96611C20.025 9.96611 20.3226 10.0881 20.5666 10.332C20.8105 10.576 20.9325 10.8638 20.9325 11.1956C20.9325 11.5469 20.8105 11.8445 20.5666 12.0884ZM28.924 1.94534C28.924 1.94534 28.802 1.82337 28.5581 1.57943C28.3141 1.33549 27.8506 1.21352 27.1676 1.21352C26.4846 1.21352 25.8991 1.45746 25.4112 1.94534C24.9233 2.43322 24.6794 3.01868 24.6794 3.70171C24.6794 4.40426 24.9233 4.99948 25.4112 5.48736C25.8991 5.97524 26.4846 6.21918 27.1676 6.21918C27.8506 6.21918 28.4361 5.97524 28.924 5.48736C29.4119 4.99948 29.6558 4.40426 29.6558 3.70171C29.6558 3.01868 29.4119 2.43322 28.924 1.94534ZM28.0604 4.59454C28.0604 4.59454 27.9994 4.65552 27.8775 4.77749C27.7555 4.89946 27.5189 4.96045 27.1676 4.96045C26.8163 4.96045 26.5187 4.83848 26.2748 4.59454C26.0308 4.3506 25.9089 4.05299 25.9089 3.70171C25.9089 3.36995 26.0308 3.0821 26.2748 2.83816C26.5187 2.59422 26.8163 2.47225 27.1676 2.47225C27.5189 2.47225 27.8165 2.59422 28.0604 2.83816C28.3044 3.0821 28.4263 3.36995 28.4263 3.70171C28.4263 4.05299 28.3044 4.3506 28.0604 4.59454ZM26.4651 5.01899C26.4651 5.01899 26.4651 4.97508 26.4651 4.88726C26.4651 4.79945 26.4065 4.69699 26.2894 4.5799C26.1723 4.46281 26.026 4.40426 25.8503 4.40426C25.6747 4.40426 25.5283 4.46281 25.4112 4.5799L20.5519 9.4392C20.4348 9.55629 20.3763 9.70266 20.3763 9.87829C20.3763 10.0539 20.4348 10.2003 20.5519 10.3174C20.6105 10.3759 20.6788 10.4198 20.7568 10.4491C20.8349 10.4784 20.913 10.493 20.991 10.493C21.0691 10.493 21.1471 10.4784 21.2252 10.4491C21.3033 10.4198 21.3716 10.3759 21.4301 10.3174L26.2894 5.45809C26.4065 5.341 26.4651 5.19463 26.4651 5.01899ZM18.1516 9.7612L14.1412 8.61956C13.985 8.56101 13.8289 8.57565 13.6728 8.66347C13.5167 8.75129 13.4191 8.87326 13.3801 9.02938C13.341 9.20502 13.3606 9.36602 13.4386 9.51238C13.5167 9.65875 13.6435 9.7612 13.8192 9.81975L17.8295 10.9614C17.8491 10.9614 17.8735 10.9663 17.9027 10.976C17.932 10.9858 17.9564 10.9907 17.9759 10.9907C18.1125 10.9907 18.2394 10.9468 18.3565 10.8589C18.4736 10.7711 18.5516 10.6589 18.5906 10.5223C18.6492 10.3662 18.6346 10.2101 18.5467 10.0539C18.4589 9.89781 18.3272 9.80023 18.1516 9.7612ZM11.2139 9.46847C11.0968 9.35138 10.9553 9.2782 10.7894 9.24893C10.6235 9.21965 10.4723 9.26356 10.3357 9.38066L5.62275 13.1276C5.48614 13.2447 5.40808 13.3862 5.38857 13.552C5.36905 13.7179 5.41784 13.8692 5.53493 14.0058C5.59348 14.0838 5.66666 14.1424 5.75448 14.1814C5.8423 14.2204 5.92524 14.24 6.0033 14.24C6.08136 14.24 6.15454 14.2302 6.22285 14.2107C6.29115 14.1912 6.34482 14.1619 6.38385 14.1229L11.0968 10.3467C11.2334 10.2491 11.3115 10.1125 11.331 9.93684C11.3505 9.7612 11.3115 9.60508 11.2139 9.46847Z" fill="white"/>
</g>
<defs>
<clipPath id="clip0_2222_3525">
<rect width="30" height="31" fill="white" transform="matrix(1 0 0 -1 0.926758 31.2769)"/>
</clipPath>
</defs>
</svg>
