<svg width="31" height="32" viewBox="0 0 31 32" fill="none" xmlns="http://www.w3.org/2000/svg">
<g clip-path="url(#clip0_2222_3542)">
<path d="M29.685 7.47809L29.6557 6.54136L28.719 6.45354C27.8213 6.35596 26.9626 6.2096 26.143 6.01445C25.3038 5.8193 24.5183 5.58999 23.7865 5.32653C23.0547 5.06308 22.3765 4.79474 21.752 4.52153C21.1275 4.2288 20.5714 3.94583 20.0835 3.67262C19.0101 3.10667 18.1661 2.5944 17.5514 2.13579C16.9366 1.67718 16.6293 1.43812 16.6293 1.4186L15.9267 0.833145L15.2242 1.4186C15.2242 1.43812 14.9168 1.67718 14.3021 2.13579C13.6873 2.5944 12.8433 3.10667 11.77 3.67262C11.2821 3.94583 10.7259 4.2288 10.1014 4.52153C9.47692 4.79474 8.79877 5.06308 8.06695 5.32653C7.33512 5.58999 6.54963 5.8193 5.71048 6.01445C4.89084 6.2096 4.03216 6.35596 3.13446 6.45354L2.19773 6.54136L2.16846 7.47809V8.29774C2.16846 8.78562 2.20261 9.4345 2.27091 10.2444C2.33922 11.0543 2.47094 11.9959 2.6661 13.0692C2.86125 14.1426 3.15398 15.2842 3.54428 16.4941C3.99313 17.9383 4.54444 19.2995 5.1982 20.5777C5.85196 21.856 6.59842 23.0415 7.43758 24.1344C7.98401 24.8174 8.54995 25.4712 9.13541 26.0957C9.74038 26.7006 10.3795 27.2715 11.0528 27.8081C11.7261 28.3448 12.4237 28.8473 13.1458 29.3157C13.8874 29.784 14.6582 30.2036 15.4584 30.5744L15.9267 30.8086L16.3951 30.5744C17.1952 30.2036 17.9661 29.784 18.7076 29.3157C19.4297 28.8473 20.1274 28.3448 20.8007 27.8081C21.4739 27.2715 22.1131 26.7006 22.718 26.0957C23.3035 25.4712 23.8694 24.8174 24.4159 24.1344C25.255 23.0415 26.0015 21.856 26.6552 20.5777C27.309 19.2995 27.8603 17.9383 28.3092 16.4941C28.6995 15.2842 28.9922 14.1426 29.1873 13.0692C29.3825 11.9959 29.5142 11.0543 29.5825 10.2444C29.6508 9.4345 29.685 8.78562 29.685 8.29774V7.47809ZM15.9267 28.3789C14.5997 27.7154 13.3702 26.9153 12.2383 25.9786C11.1064 25.0418 10.0917 23.9978 9.19395 22.8464C8.43286 21.8511 7.7547 20.7729 7.15949 19.6117C6.56427 18.4506 6.06175 17.2162 5.65193 15.9087C5.12502 14.328 4.77862 12.8692 4.61274 11.5324C4.44686 10.1956 4.35417 9.18568 4.33465 8.50265C5.05672 8.38555 5.77878 8.23919 6.50085 8.06355C7.22291 7.88791 7.94498 7.67325 8.66704 7.41955C9.38911 7.16585 10.0965 6.88776 10.7893 6.58527C11.4821 6.28278 12.17 5.94614 12.8531 5.57536C13.5556 5.18505 14.1655 4.82402 14.6826 4.49226C15.1998 4.1605 15.6145 3.87753 15.9267 3.64334C16.239 3.87753 16.6537 4.1605 17.1708 4.49226C17.688 4.82402 18.2978 5.18505 19.0004 5.57536C19.6834 5.94614 20.3713 6.28278 21.0641 6.58527C21.7569 6.88776 22.4643 7.16585 23.1864 7.41955C23.9085 7.67325 24.6305 7.88791 25.3526 8.06355C26.0747 8.23919 26.7967 8.38555 27.5188 8.50265C27.4993 9.18568 27.4066 10.1858 27.2407 11.5031C27.0748 12.8204 26.7382 14.2694 26.2308 15.8501C25.821 17.1577 25.3184 18.392 24.7232 19.5532C24.128 20.7143 23.4499 21.8023 22.6888 22.8171C21.7911 23.988 20.7763 25.0418 19.6444 25.9786C18.5125 26.9153 17.2733 27.7154 15.9267 28.3789ZM21.8398 10.8737L14.6973 18.0456L11.4187 14.7963L9.8965 16.3185L14.6973 21.1193L23.3913 12.4252L21.8398 10.8737Z" fill="white"/>
</g>
<defs>
<clipPath id="clip0_2222_3542">
<rect width="30" height="31" fill="white" transform="matrix(1 0 0 -1 0.926758 31.2769)"/>
</clipPath>
</defs>
</svg>
