<svg width="40" height="42" viewBox="0 0 40 42" fill="none" xmlns="http://www.w3.org/2000/svg">
<path d="M22.6133 6.52496C22.6133 6.52496 22.4294 6.34106 22.0616 5.97326C21.6938 5.60546 21.0065 5.42156 19.9999 5.42156C18.9933 5.42156 18.1222 5.78936 17.3866 6.52496C16.651 7.26056 16.2832 8.13167 16.2832 9.13828C16.2832 10.5837 16.9285 11.6677 18.219 12.3904L14.5797 19.669L8.88851 15.6038C9.68864 14.8811 10.0887 13.9648 10.0887 12.855C10.0887 11.8484 9.7209 10.9773 8.9853 10.2417C8.2497 9.50608 7.3786 9.13828 6.37199 9.13828C5.36538 9.13828 4.49427 9.50608 3.75867 10.2417C3.02307 10.9773 2.65527 11.8484 2.65527 12.855C2.65527 13.6809 2.90693 14.4165 3.41023 15.0618C3.91354 15.7071 4.55235 16.1458 5.32666 16.3781L7.61089 28.9608V35.1553H32.389V28.9608L34.6732 16.3781C35.4475 16.1458 36.0863 15.7071 36.5896 15.0618C37.0929 14.4165 37.3446 13.6809 37.3446 12.855C37.3446 11.8484 36.9768 10.9773 36.2412 10.2417C35.5056 9.50608 34.6345 9.13828 33.6279 9.13828C32.6213 9.13828 31.7502 9.50608 31.0146 10.2417C30.279 10.9773 29.9112 11.8484 29.9112 12.855C29.9112 13.9648 30.3112 14.8811 31.1114 15.6038L25.4201 19.669L21.7809 12.3904C23.0714 11.6677 23.7167 10.5837 23.7167 9.13828C23.7167 8.13167 23.3489 7.26056 22.6133 6.52496ZM19.1095 8.24781C19.1095 8.24781 19.1675 8.18974 19.2837 8.07359C19.3998 7.95745 19.6386 7.89937 19.9999 7.89937C20.3613 7.89937 20.6581 8.01552 20.8904 8.24781C21.1227 8.48011 21.2388 8.77693 21.2388 9.13828C21.2388 9.49962 21.1227 9.79645 20.8904 10.0287C20.6581 10.261 20.3613 10.3772 19.9999 10.3772C19.6386 10.3772 19.3418 10.261 19.1095 10.0287C18.8772 9.79645 18.761 9.49962 18.761 9.13828C18.761 8.77693 18.8772 8.48011 19.1095 8.24781ZM5.48152 11.9645C5.48152 11.9645 5.5396 11.9065 5.65575 11.7903C5.77189 11.6742 6.01064 11.6161 6.37199 11.6161C6.73333 11.6161 7.03016 11.7322 7.26245 11.9645C7.49474 12.1968 7.61089 12.4936 7.61089 12.855C7.61089 13.2163 7.49474 13.5132 7.26245 13.7455C7.03016 13.9777 6.73333 14.0939 6.37199 14.0939C6.01064 14.0939 5.71382 13.9777 5.48152 13.7455C5.24923 13.5132 5.13308 13.2163 5.13308 12.855C5.13308 12.4936 5.24923 12.1968 5.48152 11.9645ZM32.7374 11.9645C32.7374 11.9645 32.7955 11.9065 32.9116 11.7903C33.0278 11.6742 33.2665 11.6161 33.6279 11.6161C33.9892 11.6161 34.2861 11.7322 34.5184 11.9645C34.7506 12.1968 34.8668 12.4936 34.8668 12.855C34.8668 13.2163 34.7506 13.5132 34.5184 13.7455C34.2861 13.9777 33.9892 14.0939 33.6279 14.0939C33.2665 14.0939 32.9697 13.9777 32.7374 13.7455C32.5051 13.5132 32.389 13.2163 32.389 12.855C32.389 12.4936 32.5051 12.1968 32.7374 11.9645ZM19.9999 14.4036L23.8328 22.0693L25.6912 22.5339L31.8857 18.1203L30.1435 27.7218H9.85641L8.1142 18.1203L14.3087 22.5339L16.1671 22.0693L19.9999 14.4036ZM10.0887 30.1997H29.9112V32.6775H10.0887V30.1997Z" fill="#2F33A1"/>
</svg>
