<svg width="16" height="16" viewBox="0 0 16 16" fill="none" xmlns="http://www.w3.org/2000/svg">
<path d="M14.3779 8.09278L10.0295 3.74434C9.95394 3.67824 9.86659 3.64519 9.76744 3.64519C9.66829 3.64519 9.58095 3.67824 9.5054 3.74434C9.4393 3.81988 9.40625 3.90723 9.40625 4.00638C9.40625 4.10553 9.4393 4.19288 9.5054 4.26842L13.2448 7.99363H1.43175C1.32788 7.99363 1.24053 8.02904 1.16971 8.09986C1.09889 8.17069 1.06348 8.25803 1.06348 8.3619C1.06348 8.45633 1.09889 8.53896 1.16971 8.60978C1.24053 8.6806 1.32788 8.71601 1.43175 8.71601H13.2448L9.51957 12.4554C9.44402 12.5215 9.40625 12.6041 9.40625 12.7033C9.40625 12.8024 9.44402 12.8898 9.51957 12.9653C9.5479 13.0031 9.58567 13.029 9.63288 13.0432C9.6801 13.0574 9.72731 13.0645 9.77452 13.0645C9.82174 13.0645 9.86659 13.0574 9.90909 13.0432C9.95158 13.029 9.99171 13.0031 10.0295 12.9653L14.3779 8.61686C14.444 8.54132 14.4771 8.45397 14.4771 8.35482C14.4771 8.25567 14.444 8.16832 14.3779 8.09278Z" fill="white"/>
</svg>
