<svg width="41" height="42" viewBox="0 0 41 42" fill="none" xmlns="http://www.w3.org/2000/svg">
<path d="M32.2887 10.0321C32.2887 10.0321 31.4982 9.24169 29.9173 7.6608C28.3364 6.0799 25.3392 5.28946 20.9256 5.28946C16.512 5.28946 12.7243 6.87035 9.56251 10.0321C6.40072 13.1939 4.81982 16.9816 4.81982 21.3952C4.81982 25.8088 6.40072 29.5965 9.56251 32.7583C12.7243 35.9201 16.512 37.501 20.9256 37.501C25.3392 37.501 29.1269 35.9201 32.2887 32.7583C35.4505 29.5965 37.0313 25.8088 37.0313 21.3952C37.0313 16.9816 35.4505 13.1939 32.2887 10.0321ZM11.3047 11.7743C11.3047 11.7743 11.9726 11.1065 13.3083 9.77081C14.644 8.43511 17.1831 7.76726 20.9256 7.76726C24.6681 7.76726 27.8751 9.10296 30.5465 11.7743C33.2178 14.4457 34.5535 17.6527 34.5535 21.3952C34.5535 25.1377 33.2178 28.3447 30.5465 31.0161C27.8751 33.6875 24.6681 35.0232 20.9256 35.0232C17.1831 35.0232 13.9761 33.6875 11.3047 31.0161C8.63333 28.3447 7.29763 25.1377 7.29763 21.3952C7.29763 17.6527 8.63333 14.4457 11.3047 11.7743ZM22.6678 12.2196C22.6678 12.2196 22.5452 12.097 22.3 11.8518C22.0548 11.6066 21.5967 11.484 20.9256 11.484C20.2545 11.484 19.6738 11.7292 19.1834 12.2196C18.693 12.71 18.4478 13.2907 18.4478 13.9618C18.4478 14.6329 18.693 15.2136 19.1834 15.704C19.6738 16.1944 20.2545 16.4396 20.9256 16.4396C21.5967 16.4396 22.1774 16.1944 22.6678 15.704C23.1582 15.2136 23.4034 14.6329 23.4034 13.9618C23.4034 13.2907 23.1582 12.71 22.6678 12.2196ZM23.5776 18.7432C23.5776 18.7432 23.4002 18.5657 23.0453 18.2108C22.6904 17.8559 21.9838 17.6785 20.9256 17.6785C19.8674 17.6785 18.9833 18.0334 18.2736 18.7432C17.5638 19.453 17.2089 20.337 17.2089 21.3952V25.1119L18.4478 26.3508V31.3065H23.4034V26.3508L24.6423 25.1119V21.3952C24.6423 20.337 24.2874 19.453 23.5776 18.7432Z" fill="#2F33A1"/>
</svg>
