<svg width="41" height="42" viewBox="0 0 41 42" fill="none" xmlns="http://www.w3.org/2000/svg">
<path d="M5.63312 4.63223V36.8438H19.2611V31.8881H21.7389V36.8438H35.3668V4.63223H5.63312ZM8.11093 7.11004H32.889V34.3659H24.2167V29.4103H16.7833V34.3659H8.11093V7.11004ZM10.5887 9.58785V12.0657H15.5444V9.58785H10.5887ZM18.0222 9.58785V12.0657H22.9778V9.58785H18.0222ZM25.4556 9.58785V12.0657H30.4112V9.58785H25.4556ZM10.5887 14.5435V17.0213H15.5444V14.5435H10.5887ZM18.0222 14.5435V17.0213H22.9778V14.5435H18.0222ZM25.4556 14.5435V17.0213H30.4112V14.5435H25.4556ZM10.5887 19.4991V21.9769H15.5444V19.4991H10.5887ZM18.0222 19.4991V21.9769H22.9778V19.4991H18.0222ZM25.4556 19.4991V21.9769H30.4112V19.4991H25.4556ZM10.5887 24.4547V26.9325H15.5444V24.4547H10.5887ZM18.0222 24.4547V26.9325H22.9778V24.4547H18.0222ZM25.4556 24.4547V26.9325H30.4112V24.4547H25.4556ZM10.5887 29.4103V31.8881H15.5444V29.4103H10.5887ZM25.4556 29.4103V31.8881H30.4112V29.4103H25.4556Z" fill="#2F33A1"/>
</svg>
