<svg width="34" height="34" viewBox="0 0 34 34" fill="none" xmlns="http://www.w3.org/2000/svg">
<path d="M25.4858 23.3376L21.9534 19.8051C21.794 19.6457 21.5778 19.5571 21.3511 19.5571H20.7735C21.7514 18.3064 22.3325 16.7333 22.3325 15.022C22.3325 10.951 19.0339 7.65234 14.9629 7.65234C10.8919 7.65234 7.59326 10.951 7.59326 15.022C7.59326 19.093 10.8919 22.3916 14.9629 22.3916C16.6742 22.3916 18.2473 21.8105 19.498 20.8326V21.4101C19.498 21.6369 19.5866 21.853 19.746 22.0125L23.2785 25.5449C23.6116 25.878 24.1501 25.878 24.4796 25.5449L25.4823 24.5422C25.8154 24.2092 25.8154 23.6706 25.4858 23.3376ZM14.9629 19.5571C12.4579 19.5571 10.4277 17.5305 10.4277 15.022C10.4277 12.517 12.4544 10.4868 14.9629 10.4868C17.4678 10.4868 19.498 12.5135 19.498 15.022C19.498 17.5269 17.4714 19.5571 14.9629 19.5571Z" fill="#21225B"/>
</svg>
