<svg width="41" height="42" viewBox="0 0 41 42" fill="none" xmlns="http://www.w3.org/2000/svg">
<g clip-path="url(#clip0_2222_229)">
<path d="M38.6964 9.70359L38.6577 8.46469L37.4188 8.34854C36.2315 8.21949 35.0958 8.02591 34.0118 7.7678C32.902 7.5097 31.8631 7.20642 30.8952 6.85798C29.9273 6.50954 29.0304 6.15464 28.2044 5.7933C27.3785 5.40614 26.6429 5.03189 25.9976 4.67054C24.5781 3.92204 23.4618 3.24451 22.6487 2.63796C21.8357 2.03142 21.4292 1.71524 21.4292 1.68943L20.5 0.915112L19.5708 1.68943C19.5708 1.71524 19.1643 2.03142 18.3513 2.63796C17.5382 3.24451 16.4219 3.92204 15.0024 4.67054C14.3571 5.03189 13.6215 5.40614 12.7956 5.7933C11.9696 6.15464 11.0727 6.50954 10.1048 6.85798C9.13692 7.20642 8.09805 7.5097 6.9882 7.7678C5.90416 8.02591 4.76849 8.21949 3.58121 8.34854L2.3423 8.46469L2.30359 9.70359V10.7876C2.30359 11.4329 2.34876 12.2911 2.43909 13.3622C2.52943 14.4334 2.70365 15.6787 2.96176 17.0983C3.21986 18.5179 3.60702 20.0278 4.12323 21.628C4.71687 23.538 5.44602 25.3383 6.31067 27.0289C7.17532 28.7195 8.16258 30.2875 9.27243 31.7329C9.99512 32.6362 10.7436 33.5009 11.5179 34.3268C12.3181 35.1269 13.1634 35.8819 14.0538 36.5917C14.9443 37.3015 15.867 37.9661 16.822 38.5856C17.8028 39.205 18.8223 39.7599 19.8805 40.2503L20.5 40.5601L21.1195 40.2503C22.1777 39.7599 23.1972 39.205 24.178 38.5856C25.133 37.9661 26.0557 37.3015 26.9462 36.5917C27.8366 35.8819 28.6819 35.1269 29.4821 34.3268C30.2564 33.5009 31.0049 32.6362 31.7276 31.7329C32.8374 30.2875 33.8247 28.7195 34.6893 27.0289C35.554 25.3383 36.2831 23.538 36.8768 21.628C37.393 20.0278 37.7801 18.5179 38.0382 17.0983C38.2963 15.6787 38.4706 14.4334 38.5609 13.3622C38.6512 12.2911 38.6964 11.4329 38.6964 10.7876V9.70359ZM20.5 37.3466C18.7449 36.4691 17.1188 35.4109 15.6218 34.172C14.1248 32.9331 12.7827 31.5522 11.5954 30.0294C10.5888 28.713 9.69185 27.287 8.90463 25.7513C8.11741 24.2156 7.45279 22.583 6.91077 20.8537C6.21388 18.7631 5.75574 16.8337 5.53636 15.0657C5.31697 13.2977 5.19437 11.962 5.16856 11.0586C6.12354 10.9038 7.07853 10.7102 8.03352 10.4779C8.98851 10.2456 9.9435 9.9617 10.8985 9.62616C11.8535 9.29062 12.7891 8.92282 13.7054 8.52276C14.6217 8.1227 15.5315 7.67747 16.4348 7.18707C17.364 6.67086 18.1706 6.19336 18.8546 5.75458C19.5386 5.3158 20.087 4.94155 20.5 4.63182C20.913 4.94155 21.4614 5.3158 22.1454 5.75458C22.8294 6.19336 23.636 6.67086 24.5652 7.18707C25.4685 7.67747 26.3783 8.1227 27.2946 8.52276C28.2109 8.92282 29.1465 9.29062 30.1015 9.62616C31.0565 9.9617 32.0115 10.2456 32.9665 10.4779C33.9215 10.7102 34.8765 10.9038 35.8314 11.0586C35.8056 11.962 35.683 13.2848 35.4636 15.027C35.2443 16.7692 34.799 18.6856 34.128 20.7763C33.5859 22.5056 32.9213 24.1381 32.1341 25.6738C31.3469 27.2096 30.45 28.6485 29.4433 29.9907C28.2561 31.5393 26.9139 32.9331 25.4169 34.172C23.9199 35.4109 22.2809 36.4691 20.5 37.3466ZM28.3206 14.1946L18.8739 23.68L14.5378 19.3825L12.5246 21.3958L18.8739 27.7451L30.3725 16.2466L28.3206 14.1946Z" fill="#2F33A1"/>
</g>
<defs>
<clipPath id="clip0_2222_229">
<rect width="40" height="41" fill="white" transform="matrix(1 0 0 -1 0.5 41.1797)"/>
</clipPath>
</defs>
</svg>
