<svg width="1920" height="194" viewBox="0 0 1920 194" fill="none" xmlns="http://www.w3.org/2000/svg">
<g clip-path="url(#clip0_2222_3393)">
<path d="M401.862 179.763C515.795 169.58 626.27 145.18 771.905 83.6981C828.775 59.2975 919.653 24.1378 964.995 14.7234C1010.34 5.30901 1066.06 -0.26276 1110.05 4.54049C1129.65 6.65392 1153.47 7.23031 1206.31 18.7581C1258.57 30.8623 1318.13 50.6517 1358.86 66.2142C1438.21 96.7629 1541.19 108.291 1616.32 109.636C1782.32 112.71 1920.65 50.4596 1920.65 50.4596V193.02H-0.650024V126.351C-0.650024 126.351 98.297 163.624 203.392 175.728C307.719 187.256 356.52 183.798 401.862 179.763Z" fill="white"/>
</g>
<defs>
<clipPath id="clip0_2222_3393">
<rect width="1920" height="192.13" fill="white" transform="translate(0 0.889648)"/>
</clipPath>
</defs>
</svg>
