<svg width="167" height="53" viewBox="0 0 167 53" fill="none" xmlns="http://www.w3.org/2000/svg">
<circle cx="23.8737" cy="25.3473" r="23.8737" fill="#343C98"/>
<path d="M35.1513 40H28.7001L17.9103 23.6645V40H11.4591V13.5161H17.9103L28.7001 29.9271V13.5161H35.1513V40Z" fill="white"/>
<path d="M82.6469 13.5161V40H76.1957V24.1172L70.2727 40H65.0665L59.1057 24.0795V40H52.6545V13.5161H60.2752L67.7073 31.8511L75.0639 13.5161H82.6469ZM123.805 40H117.354L106.564 23.6645V40H100.113V13.5161H106.564L117.354 29.9271V13.5161H123.805V40ZM164.246 13.5161V40H157.795V29.0971H147.76V40H141.308V13.5161H147.76V23.8909H157.795V13.5161H164.246Z" fill="#343C98"/>
</svg>
