<svg width="167" height="54" viewBox="0 0 167 54" fill="none" xmlns="http://www.w3.org/2000/svg">
<circle cx="23.9469" cy="25.5793" r="23.8737" fill="white"/>
<path d="M35.2245 40.2324H28.7733L17.9836 23.8969V40.2324H11.5324V13.7485H17.9836L28.7733 30.1595V13.7485H35.2245V40.2324Z" fill="#383A8E"/>
<path d="M82.7202 13.7485V40.2324H76.269V24.3496L70.3459 40.2324H65.1397L59.1789 24.3119V40.2324H52.7277V13.7485H60.3485L67.7805 32.0835L75.1372 13.7485H82.7202ZM123.878 40.2324H117.427L106.637 23.8969V40.2324H100.186V13.7485H106.637L117.427 30.1595V13.7485H123.878V40.2324ZM164.319 13.7485V40.2324H157.868V29.3295H147.833V40.2324H141.382V13.7485H147.833V24.1233H157.868V13.7485H164.319Z" fill="white"/>
</svg>
